<svg xmlns="http://www.w3.org/2000/svg" xml:space="preserve" viewBox="0 0 128 128">
  <path d="M41.6 49.5h-3.4V61.8H45V49.5h-3.4zM38.3 71.8V84.1h6.8V71.8h-6.8z" style="display:inline;fill:#000;fill-opacity:1"/>
  <path d="M86.4 21.5H83v5.6h-2.8v5.6h-2.8v5.6h-2.8v5.6h-2.8v5.6H69v5.6h-2.8v5.6h-2.8v5.6h-2.8v5.6h-2.8v5.6H55v5.6h-2.8v5.6h-2.8v5.6h-2.8v5.6h-2.8v6.8h6.8v-5.6h2.8v-5.6h2.8v-5.6H59v-5.6h2.8v-5.6h2.8v-5.6h2.8v-5.6h2.8v-5.6H73v-5.6h2.8v-5.6h2.8v-5.6h2.8v-5.6h2.8v-5.6H87v-5.6h2.8v-6.8h-3.4z" style="display:inline"/>
</svg>
